<svg viewBox="0 0 177 152.94" xmlns="http://www.w3.org/2000/svg"><g fill-rule="evenodd"><path d="m94.15.08c19.12.56 38.66 4.73 52.02 18.18 13.23 13.32 17.12 32.51 16.79 51.12-.33 18.23-6.41 35.59-18.58 49.36-13.18 14.93-30.18 27.04-50.23 28.57-21.48 1.63-43.56-5.18-58.66-20.29-14.98-15-19.84-36.64-19.2-57.64.62-20.31 7.31-40.62 22.63-54.26 14.72-13.1 35.38-15.63 55.23-15.04z" fill="#004921"/><path d="m15.03 35.91c11.04-8.42 26.86-6.95 41.81-3.67 14.85 3.26 29.56 9.43 40.49 21.72 11.79 13.26 20.47 30 20.09 46.4-.38 16.54-9.74 29.72-22.02 38.31-11.73 8.21-26.88 9.72-42.3 6.7-15.72-3.09-32.22-9.48-42.72-23.39-10.34-13.72-10.96-30.85-10.11-46.61.83-15.33 3.63-30.98 14.76-39.46z" fill="#326d4d"/><path d="m151.49 19.83c12.52 6 18.41 20.75 22.29 35.57 3.86 14.7 5.05 30.61-.92 45.94-6.44 16.53-17.4 31.87-32.18 39-14.9 7.19-30.89 4.85-44.13-2.18-12.64-6.71-20.89-19.51-25.21-34.63-4.4-15.41-6.21-33 1.4-48.68 7.5-15.46 22.47-23.8 36.89-30.22 14.03-6.24 29.24-10.86 41.85-4.81z" fill="#326d4d"/><path d="m89.24 21.16c13.82 1.49 24.77 11.18 34.71 21.65 10.11 10.66 20.53 22.25 21.41 37.47.92 15.97-6.84 30.6-16.79 42.46-10.56 12.58-23.63 23.46-39.33 24.43-16.46 1.01-33.17-5.96-44.1-19.28-10.43-12.71-11.09-30.63-10.78-47.61.3-16.53 1.63-34.11 12.47-45.79 10.84-11.67 27.18-14.98 42.41-13.34z" fill="#669179"/><path d="m93.12 66.4c15-.67 28.24 6.81 38.78 15.22 10.43 8.32 18.54 18.75 18.4 30.41-.14 11.57-8.15 22.1-19.11 29.85-10.39 7.35-24.1 9.88-38.07 10.57-15.21.75-32.29 1.81-43.18-6.55-10.95-8.4-11.13-21.92-9.45-33.86 1.48-10.54 8.95-19.28 18.02-27.14 9.74-8.44 20.13-17.84 34.61-18.48z" fill="#99b6a6"/></g></svg>