<svg fill="none" height="50" viewBox="0 0 50 50" width="50" xmlns="http://www.w3.org/2000/svg"><path d="m24.9701 0c3.4648 0 6.7105.657109 9.7372 1.97133 3.0267 1.31421 5.675 3.09637 7.945 5.34647s4.0622 4.8885 5.3764 7.9152 1.9713 6.2724 1.9713 9.7371c0 3.4648-.6571 6.7105-1.9713 9.7372s-3.1064 5.675-5.3764 7.945-4.9183 4.0622-7.945 5.3764-6.2724 1.9713-9.7372 1.9713c-3.4647 0-6.7104-.6571-9.7371-1.9713s-5.6651-3.1064-7.9152-5.3764-4.03226-4.9183-5.34647-7.945c-1.314221-3.0267-1.97133-6.2724-1.97133-9.7372 0-3.4647.657109-6.7104 1.97133-9.7371 1.31421-3.0267 3.09637-5.6651 5.34647-7.9152s4.8885-4.03226 7.9152-5.34647c3.0267-1.314221 6.2724-1.97133 9.7371-1.97133zm-7.7658 18.7575h-6.2724v20.3106h6.2724zm-3.1661-1.6129c.8762 0 1.6229-.2987 2.2402-.8961s.9259-1.3341.9259-2.2103c0-.8761-.3086-1.6129-.9259-2.2102-.6173-.5974-1.364-.8961-2.2402-.8961-.8761 0-1.6129.2987-2.2102.8961-.5974.5973-.8961 1.3341-.8961 2.2102 0 .8762.2987 1.6129.8961 2.2103.5973.5974 1.3341.8961 2.2102.8961zm25.0299 10.1553c0-1.4337-.3982-2.8375-1.1947-4.2115-.7965-1.3739-1.832-2.4193-3.1064-3.1362-1.1549-.6372-2.499-.9757-4.0322-1.0155-1.5333-.0398-2.9371.219-4.2115.7766v-.9558h-6.2127v20.3106h6.2127v-12.4253l2.6284-1.2545c.3186-.1593.7467-.239 1.2844-.239.5376 0 .9657.0996 1.2843.2987.239.1195.4779.3784.7169.7766.2389.3983.3584.7567.3584 1.0753v11.7682h6.2724z" fill="#ea612a"/></svg>