<svg fill="none" height="50" viewBox="0 0 50 50" width="50" xmlns="http://www.w3.org/2000/svg"><path d="m24.9701 0c3.4648 0 6.7105.657109 9.7372 1.97133 3.0267 1.31421 5.675 3.09637 7.945 5.34647s4.0622 4.8885 5.3764 7.9152 1.9713 6.2724 1.9713 9.7371c0 3.4648-.6571 6.7105-1.9713 9.7372s-3.1064 5.675-5.3764 7.945-4.9183 4.0622-7.945 5.3764-6.2724 1.9713-9.7372 1.9713c-3.4647 0-6.7104-.6571-9.7371-1.9713s-5.6651-3.1064-7.9152-5.3764-4.03226-4.9183-5.34647-7.945c-1.314221-3.0267-1.97133-6.2724-1.97133-9.7372 0-3.4647.657109-6.7104 1.97133-9.7371 1.31421-3.0267 3.09637-5.6651 5.34647-7.9152s4.8885-4.03226 7.9152-5.34647c3.0267-1.314221 6.2724-1.97133 9.7371-1.97133zm12.4254 19.5938c1.1549-.8762 2.1704-1.9315 3.0466-3.1661-.5576.239-1.1251.4381-1.7026.5974-.5774.1593-1.1847.2788-1.8219.3584.6372-.3982 1.1947-.8861 1.6726-1.4635.4779-.5775.8164-1.2047 1.0155-1.8818-.5973.3186-1.2146.6074-1.8518.8662-.6372.2589-1.2943.448-1.9713.5675-.5576-.5575-1.2147-1.0155-1.9714-1.3739-.7566-.3585-1.593-.5377-2.5089-.5377-.8363 0-1.6229.1593-2.3596.4779-.7368.3186-1.374.7567-1.9116 1.3142-.5377.5576-.9658 1.2047-1.2844 1.9415s-.4779 1.5233-.4779 2.3596c0 .239.01.4779.0299.7169.0199.2389.0498.458.0896.6571-2.509-.1195-4.8387-.7368-6.9893-1.8519-2.1505-1.1151-3.9824-2.6085-5.4958-4.4803-.5575.916-.8363 1.9315-.8363 3.0466 0 1.0355.2489 2.0012.7467 2.8973.4978.896 1.145 1.6228 1.9415 2.1804-1.0355-.0797-1.9514-.3385-2.7479-.7766v.0597c0 1.5134.4679 2.8177 1.4038 3.9128.9359 1.0952 2.1007 1.7822 3.4946 2.061-.2788.0796-.5476.1394-.8064.1792-.2589.0398-.5277.0597-.8065.0597-.1991 0-.3883-.0099-.5675-.0299-.1792-.0199-.3684-.0497-.5675-.0896.3983 1.1948 1.1051 2.1904 2.1207 2.9869 1.0155.7965 2.2003 1.1947 3.5543 1.1947-1.0354.8364-2.2003 1.4835-3.4946 1.9415s-2.6384.687-4.0322.687c-.2788 0-.5377-.01-.7766-.0299-.239-.0199-.4779-.0498-.7169-.0896 1.3541.8761 2.8176 1.5532 4.3907 2.0311s3.2159.7168 4.9283.7168c2.7878 0 5.2569-.5277 7.4074-1.583 2.1506-1.0554 3.9526-2.4094 5.4062-4.0622 1.4536-1.6527 2.5588-3.5045 3.3155-5.5555.7566-2.051 1.135-4.0721 1.135-6.0633z" fill="#ea612a"/></svg>