<svg fill="none" height="50" viewBox="0 0 50 50" width="50" xmlns="http://www.w3.org/2000/svg"><path d="m25.0299 0c3.4647 0 6.7104.657109 9.7371 1.97133 3.0267 1.31421 5.6651 3.09637 7.9152 5.34647s4.0323 4.8885 5.3465 7.9152 1.9713 6.2724 1.9713 9.7371c0 3.4648-.6571 6.7105-1.9713 9.7372s-3.0964 5.675-5.3465 7.945-4.8885 4.0622-7.9152 5.3764-6.2724 1.9713-9.7371 1.9713c-3.4648 0-6.7105-.6571-9.7372-1.9713s-5.67502-3.1064-7.94503-5.3764-4.06213-4.9183-5.37634-7.945c-1.314221-3.0267-1.97133-6.2724-1.97133-9.7372 0-3.4647.657109-6.7104 1.97133-9.7371 1.31421-3.0267 3.10633-5.6651 5.37634-7.9152s4.91833-4.03226 7.94503-5.34647c3.0267-1.314221 6.2724-1.97133 9.7372-1.97133zm7.8853 30.3465c.7168-.5974 1.3241-1.3142 1.822-2.1506.4978-.8363.906-1.7523 1.2246-2.7479s.5376-2.0012.6571-3.0167.1195-2.0012 0-2.957c-.1195-1.0354-.4381-2.041-.9558-3.0167s-1.1948-1.8419-2.0311-2.5986-1.7921-1.3938-2.8674-1.9116c-1.0752-.5177-2.2102-.8363-3.405-.9558-1.8319-.1991-3.5942-.0796-5.2867.3585-1.6926.438-3.186 1.125-4.4803 2.0609s-2.3397 2.1007-3.1362 3.4946-1.1948 2.967-1.1948 4.7193c0 1.6726.2987 3.0266.8961 4.0621.5974 1.0354 1.6527 1.8319 3.1661 2.3895.5177-.4779.7865-.926.8064-1.3441.0199-.4182-.0697-.8363-.2688-1.2545s-.4381-.8562-.7168-1.3142c-.2788-.458-.4381-.9658-.4779-1.5233-.1593-1.4735.1294-2.8774.8662-4.2115.7367-1.3341 1.7224-2.4193 2.9569-3.2557 1.2346-.8363 2.6484-1.3341 4.2414-1.4934s3.186.219 4.779 1.135c.7566.4381 1.354 1.0653 1.7921 1.8817.438.8164.7467 1.7324.9259 2.7479.1792 1.0156.219 2.0709.1195 3.1661-.0996 1.0952-.3385 2.1008-.7169 3.0167-.3783.916-.8861 1.7125-1.5233 2.3895s-1.3938 1.0952-2.27 1.2545c-.5575.1195-1.125.1095-1.7025-.0299-.5775-.1393-.9857-.3285-1.2246-.5675-.6372-.5973-.8961-1.2744-.7766-2.031.1195-.7567.3385-1.5731.6571-2.4493.3186-.8761.6073-1.7722.8662-2.6881.2589-.916.2091-1.7921-.1493-2.6285-.3186-.7168-.7667-1.1449-1.3441-1.2843-.5775-.1394-1.145-.0697-1.7025.2091-.5576.2787-1.0653.6969-1.5233 1.2545-.458.5575-.7467 1.1549-.8662 1.7921-.0797.677-.0199 1.3441.1792 2.0012s.2987 1.3042.2987 1.9414c0 .7169-.0996 1.4835-.2987 2.2999s-.4281 1.6527-.687 2.509c-.2588.8562-.5177 1.6925-.7766 2.5089-.2588.8164-.448 1.5831-.5675 2.2999-.0796.5575-.1493 1.3142-.209 2.27-.0598.9558-.01 1.7324.1493 2.3298l-.0597.0597h1.9713c.677-1.1549 1.2545-2.509 1.7324-4.0621.4779-1.5532.896-3.0466 1.2544-4.4803.1992-.1991.3485-.1593.4481.1195.0995.2787.2489.4779.448.5973.5974.4779 1.3142.7667 2.1505.8662.8364.0996 1.6727.0896 2.509-.0298.8363-.1195 1.6428-.3386 2.4194-.6572.7765-.3186 1.4038-.677 1.8817-1.0752z" fill="#ea612a"/></svg>