<svg fill="none" height="50" viewBox="0 0 50 50" width="50" xmlns="http://www.w3.org/2000/svg"><path d="m24.9702 0c3.4565 0 6.7044.655542 9.7437 1.96663 3.0394 1.31108 5.6913 3.09892 7.9559 5.36352 2.2646 2.26461 4.0525 4.90665 5.3636 7.92615 1.3111 3.0194 1.9666 6.2574 1.9666 9.7139s-.6555 6.7044-1.9666 9.7437c-1.3111 3.0394-3.099 5.6913-5.3636 7.9559s-4.9165 4.0525-7.9559 5.3636c-3.0393 1.3111-6.2872 1.9666-9.7437 1.9666s-6.6945-.6555-9.7139-1.9666c-3.0195-1.3111-5.66154-3.099-7.92615-5.3636-2.2646-2.2646-4.05244-4.9165-5.36352-7.9559-1.311088-3.0393-1.96663-6.2872-1.96663-9.7437s.655542-6.6945 1.96663-9.7139c1.31108-3.0195 3.09892-5.66154 5.36352-7.92615 2.26461-2.2646 4.90665-4.05244 7.92615-5.36352 3.0194-1.311088 6.2574-1.96663 9.7139-1.96663zm9.416 10.9058h-5.304c-1.0329 0-1.9865.1788-2.8605.5364-.8741.3576-1.6389.8343-2.2944 1.4303-.6555.5959-1.1621 1.2713-1.5197 2.0262-.3575.7549-.5363 1.5097-.5363 2.2646v3.1585h-4.708v6.1979h4.708v12.5149h6.2574v-12.5149h4.6484v-6.1979h-4.6484v-1.609c0-.4768.1887-.8542.5662-1.1323.3774-.2782.7052-.4172.9833-.4172h4.708z" fill="#ea612a"/></svg>