<svg fill="none" height="50" viewBox="0 0 50 50" width="50" xmlns="http://www.w3.org/2000/svg"><path d="m24.7312 30.5257c-.7567 0-1.4636-.1394-2.1207-.4182-.6571-.2787-1.2346-.667-1.7324-1.1648-.4978-.4979-.8861-1.0853-1.1648-1.7623-.2788-.677-.4182-1.3939-.4182-2.1505 0-.7567.1394-1.4636.4182-2.1207.2787-.6571.667-1.2346 1.1648-1.7324s1.0753-.8861 1.7324-1.1649c.6571-.2787 1.364-.4181 2.1207-.4181 1.5133 0 2.7977.5277 3.853 1.583 1.0554 1.0554 1.5831 2.3397 1.5831 3.8531 0 .7566-.1394 1.4735-.4182 2.1505s-.6671 1.2644-1.1649 1.7623c-.4978.4978-1.0752.8861-1.7323 1.1648-.6572.2788-1.364.4182-2.1207.4182zm8.7216-5.4958c0-.3585-.0199-.7268-.0597-1.1052-.0399-.3783-.0996-.7268-.1792-1.0454h2.4492v12.0072c0 .3186-.0996.5775-.2987.7766s-.458.2987-.7766.2987h-19.7132c-.3186 0-.5775-.0996-.7766-.2987-.1992-.1991-.2987-.458-.2987-.7766v-12.0072h2.4492c-.0796.3186-.1394.6671-.1792 1.0454-.0398.3784-.0597.7467-.0597 1.1052 0 1.1947.229 2.3297.6869 3.405.458 1.0753 1.0753 2.0111 1.8519 2.8076s1.7025 1.4238 2.7778 1.8818c1.0752.4579 2.2102.6869 3.405.6869 1.1947 0 2.3297-.229 3.405-.6869 1.0753-.458 2.0012-1.0853 2.7778-1.8818s1.3938-1.7323 1.8518-2.8076.687-2.2103.687-3.405zm-8.4827-25.0299c3.4648 0 6.7105.657109 9.7372 1.97133 3.0267 1.31421 5.675 3.09637 7.945 5.34647s4.0622 4.8885 5.3764 7.9152 1.9713 6.2724 1.9713 9.7371c0 3.4648-.6571 6.7105-1.9713 9.7372s-3.1064 5.675-5.3764 7.945-4.9183 4.0622-7.945 5.3764-6.2724 1.9713-9.7372 1.9713c-3.4647 0-6.7104-.6571-9.7371-1.9713s-5.6651-3.1064-7.9152-5.3764-4.03226-4.9183-5.34647-7.945c-1.314221-3.0267-1.97133-6.2724-1.97133-9.7372 0-3.4647.657109-6.7104 1.97133-9.7371 1.31421-3.0267 3.09637-5.6651 5.34647-7.9152s4.8885-4.03226 7.9152-5.34647c3.0267-1.314221 6.2724-1.97133 9.7371-1.97133zm13.9785 14.098c0-.916-.3186-1.6926-.9558-2.3298s-1.4137-.9558-2.3297-.9558h-21.8638c-.916 0-1.6926.3186-2.3298.9558s-.9558 1.4138-.9558 2.3298v21.8638c0 .9159.3186 1.6925.9558 2.3297s1.4138.9558 2.3298.9558h21.8638c.916 0 1.6925-.3186 2.3297-.9558s.9558-1.4138.9558-2.3297zm-4.3608 0c.3186 0 .5775.1095.7766.3285.1991.2191.2987.4879.2987.8065v3.2855c0 .3186-.0996.5775-.2987.7766s-.458.2987-.7766.2987h-3.2855c-.3186 0-.5874-.0996-.8065-.2987-.219-.1991-.3285-.458-.3285-.7766v-3.2855c0-.3186.1095-.5874.3285-.8065.2191-.219.4879-.3285.8065-.3285z" fill="#ea612a"/></svg>